<svg width="168" height="120" viewBox="0 0 168 120" fill="none" xmlns="http://www.w3.org/2000/svg">
<g clip-path="url(#clip0_28_84)">
<path d="M79.1626 118.69H0V119.034H79.1626V118.69Z" fill="#3F3D56"/>
<path d="M20.1232 117.49H22.3739L23.4448 108.808H20.1229L20.1232 117.49Z" fill="#FFB8B8"/>
<path d="M26.715 119.58L19.641 119.58L19.6408 116.847L23.9817 116.847C24.7066 116.847 25.4018 117.135 25.9144 117.647C26.427 118.16 26.715 118.855 26.715 119.58Z" fill="#2F2E41"/>
<path d="M8.14774 117.057L10.379 117.355L12.588 108.89L9.29521 108.451L8.14774 117.057Z" fill="#FFB8B8"/>
<path d="M14.4055 120L7.39349 119.065L7.7547 116.356L12.0575 116.93C12.776 117.025 13.4271 117.403 13.8674 117.979C14.3077 118.554 14.5013 119.281 14.4055 120Z" fill="#2F2E41"/>
<path d="M11.3454 81.6335L24.0134 82.1843L23.4627 114.313L20.1579 113.946L17.5876 92.0984L11.529 115.415L8.2243 114.864L11.3454 81.6335Z" fill="#2F2E41"/>
<path d="M19.7908 62.5396L15.3845 61.6394L12.6306 81.817C12.6306 81.817 20.7088 87.1412 23.2791 81.6334L19.7908 62.5396Z" fill="#63E9FF"/>
<path d="M17.8689 60.1698C20.3593 60.1698 22.3781 58.1509 22.3781 55.6605C22.3781 53.1701 20.3593 51.1513 17.8689 51.1513C15.3785 51.1513 13.3596 53.1701 13.3596 55.6605C13.3596 58.1509 15.3785 60.1698 17.8689 60.1698Z" fill="#FFB8B8"/>
<path d="M15.3846 61.438L8.95874 63.4575C8.95874 63.4575 12.0798 79.0631 6.9392 87.1412C6.9392 87.1412 13.365 93.9342 16.1189 78.6959C16.1189 78.6959 18.3221 66.395 15.3846 61.438Z" fill="#2F2E41"/>
<path d="M19.7908 62.5396L24.5643 65.4771C24.5643 65.4771 27.1346 86.9576 24.5643 88.9772C21.994 90.9967 19.7908 62.5396 19.7908 62.5396Z" fill="#2F2E41"/>
<path d="M26.5489 92.0922C26.3532 91.9063 26.2008 91.6798 26.1021 91.4285C26.0035 91.1773 25.9612 90.9075 25.9782 90.6381C25.9951 90.3687 26.0709 90.1063 26.2002 89.8694C26.3296 89.6325 26.5092 89.4269 26.7266 89.2669L24.7859 82.9998L28.0599 83.9508L29.4009 89.7564C29.6454 90.1394 29.7409 90.5988 29.6693 91.0475C29.5977 91.4963 29.364 91.9032 29.0124 92.1911C28.6609 92.479 28.2159 92.628 27.7619 92.6098C27.3078 92.5916 26.8762 92.4074 26.5489 92.0922Z" fill="#FFB8B8"/>
<path d="M10.0577 90.2797C9.83984 90.1204 9.65959 89.9152 9.52964 89.6786C9.39968 89.4421 9.32317 89.1799 9.30549 88.9106C9.28782 88.6413 9.32941 88.3714 9.42734 88.1199C9.52526 87.8683 9.67715 87.6414 9.87229 87.4549L7.14526 81.4878L10.514 82.0118L12.5872 87.598C12.8787 87.9466 13.0322 88.39 13.0187 88.8442C13.0051 89.2984 12.8254 89.7318 12.5136 90.0624C12.2018 90.393 11.7796 90.5977 11.3269 90.6377C10.8743 90.6778 10.4227 90.5504 10.0577 90.2797Z" fill="#FFB8B8"/>
<path d="M10.611 63.6412L8.95868 63.4576L4.73601 77.2272L8.95868 86.7741L12.2634 84.7546L8.59149 76.86L11.529 68.4147L10.611 63.6412Z" fill="#2F2E41"/>
<path d="M23.6462 65.2936L24.5642 65.4772L28.9705 86.9577L26.033 87.8757L22.5447 75.2077L23.6462 65.2936Z" fill="#2F2E41"/>
<path d="M14.7703 57.5121C14.8311 57.069 15.0059 56.6493 15.2777 56.2941C15.5494 55.9389 15.9088 55.6604 16.3206 55.4859C17.1886 55.13 18.1677 55.2803 19.1033 55.3484C20.0389 55.4164 21.0806 55.3573 21.7558 54.7061C22.3726 54.1111 22.5113 53.1238 22.2135 52.3202C21.9156 51.5166 21.2411 50.8927 20.4749 50.5088C19.6941 50.1507 18.8576 49.9297 18.0018 49.8552C16.7513 49.7042 15.4673 49.6849 14.2485 50.0029C13.0297 50.3208 13.344 51.0024 12.6298 52.0399C11.9156 53.0773 11.7016 54.4908 12.2461 55.6266C12.6105 56.3865 13.2634 56.9618 13.8992 57.515" fill="#2F2E41"/>
<path d="M115.635 107.275L115.635 106.931C116.319 106.931 117.014 106.917 117.7 106.889L117.713 107.233C117.023 107.261 116.324 107.275 115.635 107.275ZM113.557 107.235C112.869 107.209 112.171 107.167 111.482 107.113L111.509 106.77C112.193 106.824 112.887 106.865 113.57 106.892L113.557 107.235ZM119.788 107.109L119.761 106.765C120.444 106.711 121.135 106.641 121.815 106.559L121.857 106.901C121.172 106.984 120.476 107.053 119.788 107.109ZM109.413 106.908C108.727 106.826 108.035 106.729 107.355 106.62L107.409 106.28C108.084 106.388 108.773 106.485 109.454 106.566L109.413 106.908ZM123.915 106.61L123.86 106.271C124.535 106.162 125.218 106.037 125.891 105.9L125.96 106.237C125.282 106.375 124.594 106.501 123.915 106.61ZM105.309 106.249C104.632 106.111 103.95 105.959 103.281 105.795L103.363 105.461C104.027 105.623 104.705 105.775 105.378 105.911L105.309 106.249ZM127.988 105.781L127.906 105.447C128.572 105.283 129.243 105.103 129.9 104.913L129.996 105.244C129.334 105.435 128.659 105.616 127.988 105.781ZM101.272 105.26C100.608 105.068 99.9404 104.861 99.2867 104.643L99.3954 104.316C100.045 104.533 100.708 104.739 101.367 104.929L101.272 105.26ZM131.98 104.625L131.871 104.298C132.521 104.081 133.175 103.848 133.816 103.604L133.939 103.926C133.293 104.171 132.635 104.406 131.98 104.625ZM97.3227 103.945C96.677 103.7 96.0266 103.438 95.3895 103.167L95.5243 102.85C96.1572 103.12 96.8033 103.38 97.4447 103.623L97.3227 103.945ZM135.861 103.151L135.726 102.834C136.355 102.565 136.987 102.281 137.604 101.987L137.751 102.298C137.131 102.593 136.495 102.88 135.861 103.151ZM93.4898 102.312C92.8646 102.015 92.2379 101.702 91.627 101.381L91.7871 101.076C92.3939 101.395 93.0164 101.706 93.6374 102.001L93.4898 102.312ZM139.607 101.37L139.446 101.065C140.053 100.746 140.66 100.411 141.251 100.069L141.423 100.367C140.828 100.711 140.217 101.049 139.607 101.37ZM89.8039 100.375C89.2041 100.028 88.605 99.6657 88.0233 99.2972L88.2075 99.0064C88.7852 99.3725 89.3804 99.7328 89.9761 100.077L89.8039 100.375ZM143.199 99.2911L143.015 99.0004C143.592 98.6349 144.17 98.2519 144.734 97.8618L144.93 98.1448C144.362 98.5376 143.78 98.9232 143.199 99.2911ZM86.288 98.1488C85.7188 97.7556 85.1511 97.3462 84.6006 96.9319L84.8074 96.657C85.3544 97.0684 85.9183 97.4751 86.4836 97.8658L86.288 98.1488ZM146.615 96.9297L146.407 96.6548C146.953 96.2444 147.5 95.816 148.031 95.3814L148.249 95.6479C147.714 96.0854 147.164 96.5166 146.615 96.9297ZM82.9637 95.6483C82.4293 95.2117 81.8965 94.7582 81.38 94.3004L81.6082 94.043C82.1214 94.4976 82.6507 94.9481 83.1815 95.3817L82.9637 95.6483ZM149.832 94.3013L149.603 94.0438C150.116 93.5894 150.627 93.1183 151.121 92.6439L151.359 92.8923C150.862 93.3697 150.348 93.8438 149.832 94.3013ZM79.8517 92.8908C79.3553 92.4138 78.8606 91.9194 78.3815 91.4213L78.6296 91.1826C79.1055 91.6776 79.5969 92.1688 80.0902 92.6424L79.8517 92.8908ZM152.83 91.4226L152.581 91.184C153.056 90.6905 153.527 90.1801 153.983 89.6667L154.24 89.8953C153.782 90.4119 153.307 90.9258 152.83 91.4226ZM76.9715 89.8946C76.5126 89.3773 76.0593 88.8451 75.6239 88.3127L75.8905 88.0949C76.3228 88.6238 76.7732 89.1525 77.229 89.6661L76.9715 89.8946ZM155.589 88.3123L155.322 88.0945C155.757 87.5628 156.187 87.0159 156.598 86.4692L156.873 86.6763C156.459 87.2267 156.027 87.7771 155.589 88.3123ZM74.3411 86.6788C73.9264 86.1281 73.5172 85.5617 73.1251 84.9952L73.4082 84.7992C73.7976 85.3621 74.204 85.9247 74.6161 86.4718L74.3411 86.6788ZM158.091 84.9895L157.808 84.7939C158.199 84.2285 158.583 83.6487 158.95 83.0706L159.24 83.2548C158.871 83.8367 158.485 84.4204 158.091 84.9895ZM71.9779 83.2645C71.6091 82.683 71.2469 82.0859 70.9014 81.4896L71.1992 81.3172C71.5424 81.9094 71.9022 82.5025 72.2685 83.0801L71.9779 83.2645ZM160.32 81.4748L160.022 81.3024C160.366 80.707 160.703 80.0978 161.021 79.4919L161.326 79.6522C161.005 80.2621 160.667 80.8754 160.32 81.4748ZM69.8976 79.6731C69.5769 79.0642 69.2642 78.4402 68.968 77.8184L69.2788 77.6705C69.573 78.2881 69.8836 78.9079 70.2021 79.5127L69.8976 79.6731ZM162.258 77.79L161.947 77.6421C162.242 77.0223 162.528 76.3877 162.798 75.7558L163.114 75.8909C162.843 76.527 162.555 77.166 162.258 77.79ZM68.1144 75.9287C67.8433 75.2948 67.5821 74.6481 67.338 74.0064L67.6597 73.8841C67.9022 74.5212 68.1616 75.1637 68.4308 75.7933L68.1144 75.9287ZM163.893 73.9579L163.571 73.8359C163.815 73.192 164.049 72.5358 164.266 71.8856L164.593 71.9944C164.374 72.6492 164.139 73.3097 163.893 73.9579ZM66.6382 72.0489C66.4191 71.3946 66.2105 70.727 66.0183 70.0646L66.3489 69.9688C66.5398 70.6266 66.747 71.2898 66.9646 71.9397L66.6382 72.0489ZM165.21 70.0092L164.88 69.9137C165.069 69.2569 165.249 68.5859 165.413 67.9188L165.747 68.0008C165.582 68.6724 165.401 69.3482 165.21 70.0092ZM65.4795 68.0568C65.3142 67.3866 65.1605 66.7044 65.0225 66.029L65.3598 65.9601C65.4968 66.631 65.6495 67.3088 65.8137 67.9745L65.4795 68.0568ZM166.202 65.9727L165.864 65.9041C166 65.2337 166.125 64.5503 166.234 63.8728L166.574 63.9276C166.464 64.6096 166.338 65.2976 166.202 65.9727ZM64.648 63.9842C64.5376 63.3048 64.4395 62.6124 64.3563 61.9262L64.698 61.8848C64.7807 62.5665 64.8781 63.2542 64.9878 63.9291L64.648 63.9842ZM166.863 61.8687L166.521 61.8277C166.603 61.1464 166.672 60.4552 166.726 59.7733L167.069 59.8005C167.015 60.487 166.945 61.1829 166.863 61.8687ZM64.1477 59.8582C64.0921 59.1708 64.0498 58.4726 64.0218 57.7832L64.3656 57.7692C64.3935 58.4541 64.4356 59.1476 64.4907 59.8305L64.1477 59.8582ZM167.193 57.7258L166.849 57.7122C166.876 57.0263 166.89 56.3317 166.89 55.6477L166.89 55.5336H167.234L167.234 55.6469C167.234 56.3362 167.22 57.0353 167.193 57.7258ZM64.3225 55.7047H63.9783L63.9784 55.6469C63.9784 54.9755 63.9915 54.2955 64.0173 53.6267L64.3611 53.64C64.3355 54.3045 64.3226 54.9799 64.3226 55.6477L64.3225 55.7047ZM166.844 53.4696C166.816 52.7862 166.773 52.0927 166.717 51.4085L167.06 51.3805C167.117 52.0692 167.16 52.7673 167.188 53.4553L166.844 53.4696ZM64.4817 51.5787L64.1385 51.5518C64.1926 50.8626 64.2614 50.1667 64.3427 49.4832L64.6845 49.5238C64.6037 50.2028 64.5355 50.8942 64.4817 51.5787ZM166.508 49.3543C166.425 48.6756 166.327 47.9879 166.216 47.3104L166.555 47.2549C166.667 47.9368 166.766 48.6292 166.849 49.3127L166.508 49.3543ZM64.9696 47.4789L64.6297 47.4244C64.7388 46.7429 64.8633 46.0547 64.9998 45.3789L65.3371 45.447C65.2016 46.1183 65.078 46.8019 64.9696 47.4789ZM165.841 45.2797C165.703 44.6072 165.55 43.9297 165.385 43.266L165.719 43.1831C165.885 43.8513 166.039 44.5335 166.178 45.2105L165.841 45.2797ZM65.7864 43.4317L65.4521 43.35C65.6158 42.6801 65.7956 42.0042 65.9865 41.3409L66.3172 41.4361C66.1276 42.0949 65.949 42.7663 65.7864 43.4317ZM164.848 41.2723C164.656 40.6149 164.448 39.952 164.23 39.302L164.556 39.1925C164.776 39.8468 164.985 40.5142 165.178 41.176L164.848 41.2723ZM66.9285 39.4638L66.6018 39.3552C66.8197 38.6999 67.0543 38.039 67.2992 37.391L67.6212 37.5126C67.3779 38.1564 67.1448 38.8128 66.9285 39.4638ZM163.533 37.3584C163.288 36.7182 163.028 36.0761 162.759 35.45L163.076 35.3143C163.346 35.9447 163.608 36.5911 163.854 37.2356L163.533 37.3584ZM68.3925 35.5918L68.0757 35.457C68.3462 34.8212 68.6336 34.1819 68.9298 33.5571L69.2408 33.7045C68.9465 34.3251 68.6612 34.9601 68.3925 35.5918ZM161.909 33.5736C161.615 32.9566 161.303 32.3372 160.984 31.7324L161.288 31.5717C161.61 32.1805 161.923 32.8041 162.22 33.4254L161.909 33.5736ZM70.1648 31.8536L69.8599 31.6937C70.1808 31.0823 70.5187 30.4687 70.8643 29.87L71.1625 30.0421C70.8191 30.6367 70.4834 31.2463 70.1648 31.8536ZM159.985 29.9295C159.641 29.337 159.28 28.7442 158.914 28.1675L159.204 27.9828C159.573 28.5634 159.936 29.1602 160.282 29.7565L159.985 29.9295ZM72.2322 28.2728L71.9413 28.0888C72.3106 27.505 72.6967 26.9209 73.0888 26.3528L73.372 26.5484C72.9825 27.1127 72.599 27.6928 72.2322 28.2728ZM157.772 26.4495C157.382 25.887 156.975 25.3246 156.562 24.7784L156.837 24.5711C157.252 25.1209 157.662 25.687 158.055 26.2534L157.772 26.4495ZM74.58 24.8715L74.3049 24.6648C74.7197 24.1127 75.1512 23.5618 75.5874 23.0272L75.8541 23.2448C75.4207 23.7758 74.9921 24.3231 74.58 24.8715ZM155.286 23.1567C154.852 22.627 154.401 22.0989 153.946 21.587L154.203 21.3583C154.661 21.8736 155.115 22.4053 155.552 22.9385L155.286 23.1567ZM77.1921 21.6708L76.9345 21.4427C77.3914 20.9264 77.8654 20.412 78.3434 19.9137L78.5918 20.152C78.117 20.647 77.6461 21.158 77.1921 21.6708ZM152.544 20.0717C152.067 19.5775 151.575 19.087 151.081 18.6135L151.32 18.365C151.817 18.8416 152.312 19.3354 152.791 19.8329L152.544 20.0717ZM80.0507 18.6907L79.8121 18.4426C80.3087 17.9647 80.8222 17.4901 81.3381 17.0318L81.5667 17.2891C81.0541 17.7444 80.5441 18.216 80.0507 18.6907ZM149.562 17.2147C149.048 16.76 148.518 16.3101 147.987 15.8776L148.205 15.6108C148.739 16.0463 149.272 16.4991 149.79 16.9569L149.562 17.2147ZM83.1372 15.9497L82.9191 15.6835C83.4531 15.2461 84.0026 14.8143 84.5524 14.3999L84.7596 14.6746C84.2135 15.0863 83.6676 15.5154 83.1372 15.9497ZM146.36 14.6045C145.811 14.1924 145.246 13.7863 144.682 13.3974L144.877 13.114C145.445 13.5055 146.013 13.9143 146.566 14.3292L146.36 14.6045ZM86.4316 13.4655L86.2355 13.1827C86.8028 12.7895 87.3849 12.4032 87.9656 12.0345L88.1501 12.3251C87.5733 12.6913 86.9951 13.075 86.4316 13.4655ZM142.957 12.2584C142.377 11.8918 141.781 11.5323 141.187 11.1897L141.359 10.8915C141.957 11.2364 142.557 11.5984 143.141 11.9674L142.957 12.2584ZM89.9125 11.255L89.7398 10.9572C90.3349 10.6121 90.9458 10.2739 91.5554 9.95235L91.7161 10.2567C91.1105 10.5762 90.5037 10.9121 89.9125 11.255ZM139.375 10.1929C138.767 9.87446 138.145 9.56396 137.524 9.27011L137.671 8.95904C138.296 9.25482 138.923 9.56741 139.535 9.88807L139.375 10.1929ZM93.5576 9.33246L93.4095 9.02171C94.0301 8.72585 94.6658 8.4383 95.299 8.16705L95.4344 8.48342C94.8056 8.75281 94.1741 9.03844 93.5576 9.33246ZM135.636 8.42284C135.003 8.1542 134.357 7.89513 133.715 7.65262L133.836 7.33062C134.483 7.57473 135.134 7.83564 135.771 8.10604L135.636 8.42284ZM97.3434 7.71119L97.2208 7.38953C97.8648 7.14399 98.5233 6.90821 99.1779 6.68864L99.2873 7.01501C98.6371 7.23305 97.9831 7.46734 97.3434 7.71119ZM131.763 6.96089C131.113 6.74518 130.449 6.53991 129.79 6.35075L129.886 6.02001C130.549 6.21042 131.217 6.41705 131.871 6.63418L131.763 6.96089ZM101.258 6.39806L101.162 6.06765C101.824 5.87506 102.499 5.69339 103.169 5.5276L103.252 5.8617C102.586 6.02638 101.915 6.20689 101.258 6.39806ZM127.795 5.82119C127.13 5.6591 126.452 5.50827 125.779 5.3729L125.847 5.03543C126.524 5.17173 127.207 5.32365 127.876 5.48675L127.795 5.82119ZM105.266 5.40684L105.197 5.06971C105.872 4.93156 106.56 4.80518 107.241 4.69401L107.297 5.03366C106.619 5.14415 105.936 5.2697 105.266 5.40684ZM123.747 5.00652C123.07 4.89862 122.382 4.803 121.702 4.7225L121.742 4.38066C122.427 4.46175 123.12 4.55797 123.801 4.6667L123.747 5.00652ZM109.341 4.74275L109.299 4.40108C109.984 4.31772 110.68 4.24704 111.367 4.19126L111.395 4.53427C110.712 4.58981 110.021 4.6599 109.341 4.74275ZM119.647 4.52082C118.965 4.46763 118.271 4.42747 117.585 4.4015L117.599 4.05749C118.289 4.0837 118.987 4.12413 119.674 4.17765L119.647 4.52082ZM113.456 4.40814L113.442 4.06429C114.13 4.03589 114.83 4.02093 115.52 4.01976L115.521 4.36394C114.835 4.36512 114.14 4.37999 113.456 4.40814Z" fill="#CCCCCC"/>
<path d="M97.3755 87.8673C115.719 87.8673 130.589 72.9969 130.589 54.6534C130.589 36.3099 115.719 21.4395 97.3755 21.4395C79.032 21.4395 64.1616 36.3099 64.1616 54.6534C64.1616 72.9969 79.032 87.8673 97.3755 87.8673Z" fill="#3F3D56"/>
<path d="M85.5872 78.9185C95.3292 78.9185 103.227 68.0546 103.227 54.6534C103.227 41.2522 95.3292 30.3883 85.5872 30.3883C75.8451 30.3883 67.9477 41.2522 67.9477 54.6534C67.9477 68.0546 75.8451 78.9185 85.5872 78.9185Z" fill="white"/>
<path d="M79.7398 67.5382C82.4587 67.5382 84.6628 64.071 84.6628 59.7941C84.6628 55.5171 82.4587 52.0499 79.7398 52.0499C77.021 52.0499 74.8169 55.5171 74.8169 59.7941C74.8169 64.071 77.021 67.5382 79.7398 67.5382Z" fill="#3F3D56"/>
<path d="M162.631 39.3745C164.437 39.3745 165.901 37.9106 165.901 36.1047C165.901 34.2989 164.437 32.835 162.631 32.835C160.825 32.835 159.361 34.2989 159.361 36.1047C159.361 37.9106 160.825 39.3745 162.631 39.3745Z" fill="#63E9FF"/>
<path d="M124.861 9.63719C127.522 9.63719 129.68 7.47983 129.68 4.8186C129.68 2.15736 127.522 0 124.861 0C122.2 0 120.043 2.15736 120.043 4.8186C120.043 7.47983 122.2 9.63719 124.861 9.63719Z" fill="#63E9FF"/>
<path d="M121.669 110.003C123.475 110.003 124.939 108.539 124.939 106.733C124.939 104.927 123.475 103.463 121.669 103.463C119.863 103.463 118.399 104.927 118.399 106.733C118.399 108.539 119.863 110.003 121.669 110.003Z" fill="#63E9FF"/>
</g>
<defs>
<clipPath id="clip0_28_84">
<rect width="167.234" height="120" fill="white"/>
</clipPath>
</defs>
</svg>
