<svg width="63" height="75" viewBox="0 0 63 75" fill="none" xmlns="http://www.w3.org/2000/svg">
<mask id="mask0_31_169" style="mask-type:luminance" maskUnits="userSpaceOnUse" x="-91" y="-81" width="252" height="250">
<path d="M160.039 -80.6651H-90.795V168.162H160.039V-80.6651Z" fill="white"/>
</mask>
<g mask="url(#mask0_31_169)">
<mask id="mask1_31_169" style="mask-type:luminance" maskUnits="userSpaceOnUse" x="-4" y="-3" width="71" height="81">
<path d="M-3.5457 1.75252L60.7528 -2.69033L66.181 72.6618L1.88249 77.1047L-3.5457 1.75252Z" fill="white"/>
</mask>
<g mask="url(#mask1_31_169)">
<path d="M44.2947 73.5866L23.6826 75L22.1433 29.5302L39.2499 28.3572L44.2947 73.5866Z" fill="#C7BAB6"/>
<path d="M28.6419 0.0880051C11.5311 1.25943 -1.24841 17.2116 0.097228 35.7193L0.124014 36.0877C0.576145 42.3063 5.60438 47.028 11.3536 46.6344L52.494 43.8179C58.2431 43.4243 62.5384 38.0643 62.0863 31.8457L62.0595 31.4773C60.7138 12.9696 45.7527 -1.08342 28.6419 0.0880051Z" fill="#9C3103"/>
<mask id="mask2_31_169" style="mask-type:alpha" maskUnits="userSpaceOnUse" x="0" y="0" width="63" height="47">
<path d="M28.6247 0.0668055C11.5234 1.22653 -1.23698 17.1833 0.122763 35.7084L0.149829 36.0772C0.606699 42.3016 5.63619 47.0312 11.3822 46.6415L52.4997 43.8531C58.2457 43.4635 62.5345 38.1019 62.0777 31.8776L62.0506 31.5088C60.6909 12.9837 45.726 -1.09291 28.6247 0.0668055Z" fill="#9C3103"/>
</mask>
<g mask="url(#mask2_31_169)">
<path d="M20.5333 10.5101C21.104 18.3027 15.7311 25.0173 8.53351 25.5066C1.33588 25.9958 -4.96218 20.0746 -5.5328 12.282C-6.10342 4.48927 -0.730607 -2.22528 6.46703 -2.71455C13.6647 -3.20382 19.9627 2.71737 20.5333 10.5101Z" fill="#F0924A"/>
<path d="M63.1558 35.6869C63.5178 40.6305 60.1087 44.891 55.5426 45.2014C50.9764 45.5118 46.9802 41.7547 46.6182 36.8111C46.2562 31.8674 49.6653 27.6069 54.2315 27.2966C58.7976 26.9862 62.7938 30.7432 63.1558 35.6869Z" fill="#F0924A"/>
<path d="M39.0796 22.0507C39.2817 24.8109 37.3784 27.1896 34.8289 27.3629C32.2794 27.5362 30.0483 25.4386 29.8462 22.6783C29.6441 19.918 31.5474 17.5394 34.0969 17.3661C36.6464 17.1928 38.8775 19.2904 39.0796 22.0507Z" fill="#F0924A"/>
</g>
</g>
<path d="M26.9544 74.6763L18.1928 74.0684L20.2839 55.4812L27.5566 55.9859L26.9544 74.6763Z" fill="#F2E9E6"/>
<path d="M24.7669 43.8764C17.4998 43.3724 11.1631 49.126 10.6137 56.7274L10.6028 56.8778C10.4182 59.4318 12.2485 61.6402 14.6902 61.8095L32.1633 63.0213C34.605 63.1907 36.7347 61.2569 36.9193 58.7029L36.9302 58.5525C37.4797 50.9511 32.0339 44.3804 24.7669 43.8764Z" fill="#F37922"/>
<mask id="mask3_31_169" style="mask-type:luminance" maskUnits="userSpaceOnUse" x="40" y="51" width="25" height="25">
<path d="M43.2642 51.3054L64.5305 53.4507L62.1716 75.9386L40.9053 73.7933L43.2642 51.3054Z" fill="white"/>
</mask>
<g mask="url(#mask3_31_169)">
<path d="M54.4484 74.6595L47.9044 74.0031L49.8659 60.7411L55.2967 61.2859L54.4484 74.6595Z" fill="#E6D9D4"/>
<path d="M53.4609 52.5383C48.026 51.9938 43.1552 55.9589 42.5809 61.3967L42.5694 61.5056C42.3764 63.3328 43.701 64.9617 45.5273 65.1447L58.5935 66.4538C60.4198 66.6368 62.0571 65.3047 62.2501 63.4775L62.2616 63.3686C62.8359 57.9308 58.8958 53.0829 53.4609 52.5383Z" fill="#9C3103"/>
<mask id="mask4_31_169" style="mask-type:alpha" maskUnits="userSpaceOnUse" x="42" y="52" width="21" height="15">
<path d="M53.4657 52.5321C48.0334 51.991 43.1615 55.963 42.5833 61.4059L42.5717 61.5149C42.3775 63.3438 43.7003 64.9731 45.5257 65.1549L58.5856 66.4559C60.411 66.6377 62.0487 65.3033 62.243 63.4744L62.2546 63.3654C62.8328 57.9225 58.898 53.0732 53.4657 52.5321Z" fill="#9C3103"/>
</mask>
<g mask="url(#mask4_31_169)">
<path d="M50.3403 55.1178C50.0973 57.4072 48.0476 59.0778 45.7613 58.8498C43.475 58.6219 41.8192 56.5818 42.0622 54.2924C42.3051 52.003 44.3548 50.3325 46.6411 50.5604C48.9274 50.7884 50.5832 52.8284 50.3403 55.1178Z" fill="#F0924A"/>
<path d="M62.3952 64.6677C62.2411 66.1202 60.9405 67.1802 59.49 67.0356C58.0396 66.8909 56.9889 65.5965 57.143 64.144C57.2972 62.6915 58.5977 61.6315 60.0482 61.7762C61.4987 61.9208 62.5494 63.2152 62.3952 64.6677Z" fill="#F0924A"/>
<path d="M55.5553 59.4505C55.4692 60.2612 54.7422 60.8537 53.9327 60.773C53.1231 60.6923 52.5358 59.9687 52.6218 59.158C52.7079 58.3474 53.4348 57.7548 54.2444 57.8356C55.054 57.9163 55.6413 58.6399 55.5553 59.4505Z" fill="#F0924A"/>
</g>
</g>
</g>
</svg>
